<?xml version="1.0" encoding="UTF-8"?>
<svg id="Capa_2" data-name="Capa 2" xmlns="http://www.w3.org/2000/svg" viewBox="0 0 249.81 81.88">
  <defs>
    <style>
      .cls-1 {
        fill-rule: evenodd;
      }

      .cls-1, .cls-2 {
        fill: #fff;
        stroke-width: 0px;
      }
    </style>
  </defs>
  <g id="Capa_1-2" data-name="Capa 1">
    <g>
      <g>
        <polygon class="cls-1" points="109.1 36.6 103.75 36.6 103.75 71.8 5.35 71.8 5.35 36.6 5.35 5.3 72.4 5.3 72.4 0 0 0 0 5.3 0 36.6 0 71.8 0 77.1 109.1 77.1 109.1 71.8 109.1 36.6 109.1 36.6 109.1 36.6"/>
        <g>
          <path class="cls-1" d="M51.45,25.25h-5.55v23.95l-4.05.9-3.65.1-3.1-.8-2.4-1.7-1.55-2.7-.55-3.75v-16h-5.55v16.35l.25,3.6.85,3.05,1.4,2.55,1.95,2,2.45,1.45,2.95.85,3.45.35,3.9-.2,4.4-.75,4.8-1.3v-27.95h0ZM72.35,25.25h-5.55v11.3h-12.35v5.4h12.35v11.2h5.55v-27.9h0ZM88.15,36.6h-12.8v5.35h12.8v-5.35h0Z"/>
          <path class="cls-2" d="M82.29,21.88c.32.17.62.46.95.48,2.55.2,4.64,2.17,5.15,4.62.43,2.08.02,3.83-1.44,5.32-.91.93-1.95,1.74-3.33,1.79-1.18.04-2.41.21-3.52-.07-1.03-.26-2.05-.91-2.87-1.62-.92-.79-1.69-1.8-1.9-3.08,0-.72,0-1.44,0-2.16.04-.01.1-.01.11-.03.88-2.73,2.53-4.53,5.55-4.77.2-.02.38-.31.58-.47.24,0,.48,0,.72,0ZM82,25.68c-1.29.02-2.41,1.23-2.4,2.59.01,1.41,1.13,2.51,2.5,2.47,1.37-.04,2.4-1.17,2.36-2.58-.04-1.15-.97-2.55-2.46-2.48Z"/>
        </g>
      </g>
      <g>
        <path class="cls-1" d="M158.05,36.6h-3.55v2.85h3.55v-2.85h0ZM158.1,40.8h-3.65v10.8h3.65v-10.8h0Z"/>
        <path class="cls-1" d="M209.35,36.6h-3.5v2.85h3.5v-2.85h0ZM209.4,40.8h-3.6v10.8h3.6v-10.8h0Z"/>
        <polygon class="cls-1" points="169.25 62.15 165.55 62.15 165.55 68.15 160.1 68.15 160.1 62.15 156.45 62.15 156.45 68.15 156.45 71.25 156.45 77.15 160.1 77.15 160.1 71.25 165.55 71.25 165.55 77.15 169.25 77.15 169.25 71.25 169.25 68.15 169.25 62.15 169.25 62.15 169.25 62.15"/>
        <path class="cls-2" d="M197.25,81.88c-.86-.34-1.71-.69-2.67-1.07.3-.83.58-1.59.85-2.35,1.12.1,2.24.2,3.37.29,1.44.12,2.52-.91,2.18-2.66-1.18,1-2.56,1.04-3.88.65-.86-.26-1.79-.76-2.37-1.43-1.6-1.86-1.5-5.92.13-7.44,1.6-1.5,3.98-2.12,6.24-.6,1.03-1.19,2.35-.24,3.63-.68,0,.67,0,1.17,0,1.68,0,2.48.07,4.96-.03,7.43-.06,1.62-.28,3.3-1.67,4.42-.67.54-1.53.86-2.3,1.28-.28.16-.56.32-.85.48h-2.64ZM199.19,69.35c-1.35-.02-2.05.7-2.08,2.14-.03,1.53.82,2.6,2.09,2.65,1.12.04,2.05-1.04,2.08-2.43.03-1.37-.83-2.34-2.09-2.36Z"/>
        <path class="cls-2" d="M249.81,51.64c-.08,0-.16,0-.24,0-.01-4.93-.03-9.87-.04-14.8l.28-.07v14.88Z"/>
        <path class="cls-2" d="M125.03,36.84h3.46c0,2.2-.04,4.35.01,6.5.03,1.23.13,2.47.33,3.69.32,1.96,3.09,3.33,4.73,2.33.26-.16.34-.75.35-1.15.03-3.32.02-6.64.02-9.96,0-.43,0-.86,0-1.38h3.49v14.97c-3.08.75-6.15,1.5-9.15-.18-1.31-.73-2.14-1.83-2.6-3.36-1.06-3.57-.56-7.2-.69-10.8,0-.19.03-.39.05-.67Z"/>
        <path class="cls-2" d="M219.87,41.32v-4.42h3.58v14.79c-1.15-.18-2.42.5-3.53-.5-2.07,1.26-4.23,1.11-5.89-.32-1.86-1.61-2.37-4.89-1.14-7.46,1.05-2.2,2.92-2.76,6.98-2.09ZM215.78,46.39c0,.24-.02.48,0,.72.09.81.94,1.81,1.68,1.96.94.19,1.66-.21,2.13-.97.26-.42.44-.97.43-1.46-.02-1.5-.46-2.93-2.44-2.73-1.15.12-1.82,1.02-1.82,2.48Z"/>
        <path class="cls-2" d="M135.31,77.27h-3.08c-.09-.31-.18-.63-.28-.97-.05,0-.15,0-.16.03-.45.96-1.27,1.25-2.25,1.26-3.98.04-5.76-2.88-5.35-6.44.17-1.52.68-2.76,1.93-3.75,1.36-1.08,2.85-1.03,4.4-.82.38.05.74.16,1.24.28v-4.37h3.56v14.78ZM129.78,69.41c-1.32-.02-2.12.89-2.14,2.4-.02,1.81.73,2.85,2.07,2.86,1.28.02,2.2-1.03,2.19-2.68-.01-1.61-.68-2.58-2.12-2.59Z"/>
        <path class="cls-2" d="M249.53,36.83c.01,4.93.03,9.87.04,14.8-.79.02-1.6.11-2.38.04-.4-.04-.78-.36-1.26-.59-.84.99-1.81,1.13-3.37.83-1.77-.34-2.94-1.25-3.64-2.84-1.27-2.88-.36-7.04,3.02-8.02,1.3-.38,2.58-.28,3.81.34.12.05.24.1.36.15.03-.16.06-.32.09-.48v-4.22h3.34ZM246.31,46.52c-.11-.46-.18-.98-.37-1.44-.3-.74-.86-1.16-1.72-1.2-.89-.04-1.6.22-1.98,1.03-.46.97-.5,2.04-.02,2.98.35.68.93,1.29,1.89,1.23.94-.06,1.51-.59,1.86-1.39.16-.36.21-.76.33-1.21Z"/>
        <path class="cls-2" d="M218.4,77.26h-3.27c-.05-.39-.1-.75-.13-.94-1.01.42-1.97,1.09-2.98,1.18-2.11.18-3.87-.55-4.12-3.46-.21-2.44-.04-4.92-.04-7.43h3.43c0,1.27,0,2.54,0,3.8,0,.76,0,1.52,0,2.28,0,.63-.1,1.33.69,1.6.68.23,2.02-.18,2.28-.83.34-.86.61-1.79.69-2.71.11-1.34.03-2.7.03-4.12h3.41v10.64Z"/>
        <path class="cls-2" d="M144.41,51.8h-3.48v-10.62h3.24c.04.38.08.79.12,1.29.21-.13.41-.19.53-.33,1.29-1.43,2.9-1.55,4.58-1.02,1.56.5,2.11,1.88,2.18,3.33.11,2.42.03,4.85.03,7.33h-3.5c0-1.37,0-2.67,0-3.98,0-.68.08-1.37-.02-2.03-.09-.57-.22-1.31-.61-1.61-.57-.44-2.18.14-2.48.84-.31.71-.52,1.51-.56,2.28-.09,1.47-.02,2.94-.02,4.53Z"/>
        <path class="cls-2" d="M184.5,72.55c-.04,2.18-2.07,4.32-4.83,4.8-1.94.33-3.68.03-5.25-1.17-2.9-2.22-2.6-6.85.52-8.72,2.47-1.48,4.89-1.33,7.23.14,1.59.99,2.2,2.64,2.33,4.96ZM180.83,71.98c0-1.65-.89-2.62-2.39-2.62-1.54,0-2.43.94-2.44,2.57-.01,1.71.89,2.71,2.46,2.7,1.49,0,2.37-1,2.37-2.66Z"/>
        <path class="cls-2" d="M239.24,77.33h-3.47v-2.59c0-1.16,0-2.32,0-3.47,0-.66.17-1.47-.75-1.66-.9-.18-1.82.03-2.35.81-.35.52-.55,1.22-.58,1.86-.08,1.63-.03,3.26-.03,4.99h-3.48v-10.62h3.15c.06.43.12.81.19,1.33.26-.21.47-.36.65-.54,1.63-1.54,5.41-1.35,6.17.8.22.63.46,1.3.48,1.96.06,2.35.02,4.69.02,7.13Z"/>
        <path class="cls-2" d="M227.75,44.35c-.29-.56-.67-1.29-1.07-2.06,1.33-1.46,3.02-1.66,4.8-1.43,1.56.2,3.09.55,3.84,2.16.33.7.63,1.48.66,2.24.09,2.1.03,4.21.03,6.51-1.25-.38-2.63.63-3.6-.77-1.07,1.25-2.16,1.44-4.33.68-1.13-.39-2.04-1.65-2.09-2.9-.05-1.2,1.29-2.78,2.69-3.09.92-.2,1.88-.27,2.79-.5.33-.08.77-.41.84-.71.15-.64-.4-.84-.9-.78-1.15.16-2.29.4-3.66.65ZM229.8,49.35c1.66.15,2.43-.5,2.49-2.03-2.1-.42-2.93.22-2.49,2.03Z"/>
        <path class="cls-2" d="M176.86,47.15c.47,1.64,1.68,2.22,3.45,1.82.19-.04.37-.15.55-.21,1.5-.54,1.98-.3,2.4,1.27.07.26-.08.72-.28.88-.48.38-1.02.75-1.6.93-2.17.68-6.25-.16-7.52-2.68-1.51-2.98-.55-6.48,2.61-7.98,2.38-1.13,5.59.12,6.67,2.53.35.77.43,1.68.54,2.54.09.65-.32.91-.96.9-1.52-.02-3.03,0-4.55,0-.39,0-.78,0-1.3,0ZM180.04,45.06c-.17-1.1-.6-1.65-1.58-1.61-.93.04-1.41.55-1.5,1.61h3.08Z"/>
        <path class="cls-2" d="M148.38,72.73h-6.71c.31,1.29,1.08,1.98,2.36,1.87,1.04-.09,2.06-.45,3.16-.7.35.64.72,1.32,1.09,2.02-1.08,1.7-2.76,1.8-4.44,1.65-1.45-.13-2.85-.43-4.05-1.44-1.11-.94-2.1-3.4-1.71-4.84.21-.78.38-1.59.74-2.3.68-1.35,1.86-1.98,3.35-2.34,1.68-.41,3.11-.11,4.44.87.42.31.85.74,1.05,1.2.53,1.22,1.1,2.46.72,4.02ZM144.64,70.71c.1-1.11-.25-1.63-1.12-1.75-.93-.12-1.64.54-1.81,1.75h2.92Z"/>
        <path class="cls-2" d="M168.29,51.63h-4.45c-1.18-3.4-2.38-6.87-3.62-10.47h3.66c.67,2.22,1.36,4.51,2.11,6.97.76-2.41,1.48-4.7,2.2-7h3.66c-1.2,3.54-2.37,6.99-3.56,10.49Z"/>
        <path class="cls-2" d="M202.37,44.1c-1.25-.17-2.43-.34-3.6-.5-.23.94.3,1.09.77,1.31.78.37,1.58.72,2.33,1.16,1.3.77,1.91,2.18,1.37,3.58-.27.68-.91,1.39-1.57,1.72-2.3,1.17-4.49.63-6.69-.82.45-.78.88-1.5,1.17-2,1.42.26,2.65.48,4.1.74-.27-1.29-1.16-1.35-1.78-1.73-.86-.53-1.94-.94-2.46-1.72-1.39-2.05-.72-3.85,1.75-4.7,1.62-.56,3.28-.39,4.84.41.6.31.91.59.38,1.26-.31.39-.44.91-.6,1.28Z"/>
        <path class="cls-2" d="M191.87,74.5v2.81c-2.34.71-4.47-.41-4.7-2.68-.27-2.68-.28-5.39-.37-8.09-.04-1.35,0-2.7,0-4.09h3.56c0,2.11,0,4.18,0,6.24,0,1.28,0,2.55,0,3.83q0,1.63,1.51,1.98Z"/>
        <path class="cls-2" d="M189.62,43.31c1.02-1.38,1.97-2.46,3.7-2.34v3.14c-.42.11-.88.21-1.32.35-1.5.47-2.35,1.59-2.37,3.16-.02,1.31,0,2.62,0,4h-3.36v-10.46h3.26c.03.63.06,1.26.1,2.14Z"/>
        <path class="cls-2" d="M225.12,77.3h-3.44v-10.67h3.44v10.67Z"/>
        <path class="cls-2" d="M227.09,62.39c-.79,1.04-1.29,2.1-2.12,2.64-.73.47-1.84.33-3,.49.48-.85.92-1.36,1.07-1.94.28-1.1.96-1.3,1.94-1.2.62.06,1.25.01,2.12.01Z"/>
        <path class="cls-2" d="M246.19,41.05c-.03.16-.06.32-.09.48-.12-.05-.24-.1-.36-.15.15-.11.3-.22.45-.33Z"/>
      </g>
    </g>
  </g>
</svg>