<svg width="375" height="265" xmlns="http://www.w3.org/2000/svg" xmlns:xlink="http://www.w3.org/1999/xlink" xml:space="preserve" overflow="hidden"><defs><clipPath id="clip0"><rect x="2227" y="743" width="375" height="265"/></clipPath></defs><g clip-path="url(#clip0)" transform="translate(-2227 -743)"><path d="M2602 868.798 2583.61 868.798 2583.61 989.783 2245.39 989.783 2245.39 868.798 2245.39 761.217 2475.85 761.217 2475.85 743 2227 743 2227 761.217 2227 868.798 2227 989.783 2227 1008 2602 1008 2602 989.783 2602 868.798 2602 868.798 2602 868.798Z" fill="#FFFFFF" fill-rule="evenodd"/><path d="M2403.79 830 2384.7 830 2384.7 911.684 2370.77 914.753 2358.22 915.094 2347.56 912.366 2339.31 906.568 2333.98 897.359 2332.09 884.57 2332.09 830 2313 830 2313 885.763 2313.86 898.042 2316.78 908.444 2321.6 917.141 2328.3 923.962 2336.73 928.907 2346.87 931.806 2358.74 933 2372.15 932.318 2387.28 929.76 2403.79 925.326 2403.79 830 2403.79 830ZM2475.66 830 2456.58 830 2456.58 868.54 2414.11 868.54 2414.11 886.957 2456.58 886.957 2456.58 925.156 2475.66 925.156 2475.66 830 2475.66 830ZM2530 868.71 2485.98 868.71 2485.98 886.957 2530 886.957 2530 868.71 2530 868.71Z" fill="#FFFFFF" fill-rule="evenodd"/><path d="M2509.69 818C2510.78 818.581 2511.8 819.571 2512.92 819.639 2521.6 820.323 2528.71 827.051 2530.45 835.418 2531.91 842.522 2530.52 848.499 2525.55 853.588 2522.45 856.764 2518.91 859.53 2514.22 859.701 2510.2 859.837 2506.01 860.418 2502.23 859.462 2498.73 858.574 2495.26 856.354 2492.47 853.929 2489.34 851.231 2486.71 847.781 2486 843.41 2486 840.951 2486 838.492 2486 836.033 2486.14 835.999 2486.34 835.999 2486.37 835.93 2489.37 826.607 2494.99 820.459 2505.26 819.639 2505.94 819.571 2506.56 818.581 2507.24 818.034 2508.05 818.034 2508.87 818.034 2509.69 818.034ZM2508.7 830.978C2504.31 831.047 2500.5 835.179 2500.53 839.824 2500.57 844.639 2504.38 848.396 2509.04 848.26 2513.7 848.123 2517.21 844.264 2517.07 839.448 2516.94 835.52 2513.77 830.739 2508.7 830.978Z" fill="#FFFFFF" fill-rule="evenodd"/></g></svg>